<svg width="1920" height="1080" viewBox="0 0 1920 1080" fill="none" xmlns="http://www.w3.org/2000/svg">
  <defs>
    <linearGradient id="lineStrong" x1="0" y1="0" x2="1920" y2="1080" gradientUnits="userSpaceOnUse">
      <stop stop-color="#9CB4FF" stop-opacity="0.78"/>
      <stop offset="1" stop-color="#3A56C0" stop-opacity="0.92"/>
    </linearGradient>
    <linearGradient id="lineSoft" x1="240" y1="160" x2="1660" y2="900" gradientUnits="userSpaceOnUse">
      <stop stop-color="#7A96FF" stop-opacity="0.34"/>
      <stop offset="1" stop-color="#2C48B6" stop-opacity="0.6"/>
    </linearGradient>
    <linearGradient id="panelLine" x1="560" y1="700" x2="1140" y2="1010" gradientUnits="userSpaceOnUse">
      <stop stop-color="#B3C5FF" stop-opacity="0.64"/>
      <stop offset="1" stop-color="#4A66CC" stop-opacity="0.78"/>
    </linearGradient>
  </defs>

  <g opacity="0.32" stroke="url(#lineSoft)" stroke-width="2.5" stroke-linecap="round">
    <path d="M0 214H1920"/>
    <path d="M0 324H1920"/>
    <path d="M0 434H1920"/>
    <path d="M0 544H1920"/>
    <path d="M0 654H1920"/>
    <path d="M0 764H1920"/>
    <path d="M120 0V1080"/>
    <path d="M320 0V1080"/>
    <path d="M520 0V1080"/>
    <path d="M720 0V1080"/>
    <path d="M920 0V1080"/>
    <path d="M1120 0V1080"/>
    <path d="M1320 0V1080"/>
    <path d="M1520 0V1080"/>
    <path d="M1720 0V1080"/>
  </g>

  <g opacity="0.86" stroke="url(#lineStrong)" stroke-width="4" stroke-linecap="round" stroke-linejoin="round">
    <path d="M140 900H560L520 610H180L140 900Z"/>
    <path d="M350 610V220"/>
    <path d="M250 360H450"/>
    <path d="M230 430H470"/>
    <path d="M210 505H490"/>
    <path d="M350 220L270 140"/>
    <path d="M350 220L430 140"/>
    <path d="M255 358L190 295"/>
    <path d="M445 358L510 295"/>
    <path d="M225 430L150 365"/>
    <path d="M475 430L550 365"/>

    <path d="M1360 920H1780L1730 650H1410L1360 920Z"/>
    <path d="M1570 650V260"/>
    <path d="M1460 390H1680"/>
    <path d="M1440 470H1700"/>
    <path d="M1420 548H1720"/>
    <path d="M1570 260L1488 176"/>
    <path d="M1570 260L1652 176"/>
    <path d="M1462 392L1388 330"/>
    <path d="M1678 392L1752 330"/>

    <path d="M760 940V560"/>
    <path d="M760 560L700 610"/>
    <path d="M760 560L820 612"/>
    <path d="M760 670L700 722"/>
    <path d="M760 670L820 722"/>

    <path d="M970 940V500"/>
    <path d="M970 500L888 556"/>
    <path d="M970 500L1052 556"/>
    <path d="M970 632L888 690"/>
    <path d="M970 632L1052 690"/>
    <path d="M970 760L888 818"/>
    <path d="M970 760L1052 818"/>

    <path d="M1180 940V590"/>
    <path d="M1180 590L1122 644"/>
    <path d="M1180 590L1238 644"/>
  </g>

  <g opacity="0.8" stroke="url(#panelLine)" stroke-width="3.2" stroke-linecap="round" stroke-linejoin="round">
    <path d="M520 920L760 820L1130 955L890 1058L520 920Z"/>
    <path d="M640 866L1004 1000"/>
    <path d="M586 890L950 1022"/>
    <path d="M706 844L1068 978"/>
    <path d="M794 832L754 1054"/>
    <path d="M892 870L854 1070"/>
    <path d="M992 906L956 1080"/>
    <path d="M1088 942L1058 1080"/>
  </g>

  <g opacity="0.9" stroke="url(#lineStrong)" stroke-width="3.4" stroke-linecap="round">
    <path d="M120 234C340 160 548 174 760 218C986 268 1186 252 1410 202C1608 158 1770 154 1920 182"/>
    <path d="M120 300C340 226 548 236 760 282C986 330 1186 312 1410 264C1608 222 1770 220 1920 250"/>
    <path d="M120 366C340 292 548 304 760 350C986 400 1186 382 1410 334C1608 292 1770 290 1920 320"/>
  </g>

  <g fill="#9CB4FF">
    <circle cx="760" cy="560" r="7.5" fill-opacity="0.86"/>
    <circle cx="760" cy="670" r="7.5" fill-opacity="0.86"/>
    <circle cx="970" cy="500" r="8" fill-opacity="0.92"/>
    <circle cx="970" cy="632" r="8" fill-opacity="0.92"/>
    <circle cx="970" cy="760" r="8" fill-opacity="0.92"/>
    <circle cx="1180" cy="590" r="7.5" fill-opacity="0.84"/>
    <circle cx="350" cy="220" r="8" fill-opacity="0.84"/>
    <circle cx="1570" cy="260" r="8" fill-opacity="0.84"/>
  </g>
</svg>
