<svg width="1920" height="1080" viewBox="0 0 1920 1080" fill="none" xmlns="http://www.w3.org/2000/svg">
  <rect width="1920" height="1080" fill="#111D4A"/>

  <path d="M0 830C210 770 350 780 560 840C720 887 880 870 1060 812C1270 744 1460 748 1660 810C1785 849 1865 876 1920 900V1080H0V830Z" fill="#243067"/>
  <path d="M0 910C170 858 320 860 480 906C672 962 844 969 1034 926C1236 881 1438 880 1650 930C1770 958 1858 985 1920 1010V1080H0V910Z" fill="#4B5693"/>

  <g opacity="0.2" stroke="#FFFFFF" stroke-width="2">
    <path d="M120 160H1810"/>
    <path d="M120 270H1810"/>
    <path d="M120 380H1810"/>
    <path d="M120 490H1810"/>
    <path d="M120 600H1810"/>
    <path d="M120 710H1810"/>
    <path d="M120 820H1810"/>
    <path d="M190 110V910"/>
    <path d="M410 110V910"/>
    <path d="M630 110V910"/>
    <path d="M850 110V910"/>
    <path d="M1070 110V910"/>
    <path d="M1290 110V910"/>
    <path d="M1510 110V910"/>
    <path d="M1730 110V910"/>
  </g>

  <g opacity="0.28" stroke="#FFFFFF" stroke-width="3">
    <path d="M1360 500L1490 430L1620 480L1740 420"/>
    <path d="M1490 430L1490 620"/>
    <path d="M1620 480L1620 670"/>
    <path d="M1740 420L1740 620"/>
    <circle cx="1490" cy="430" r="8" fill="#FFFFFF"/>
    <circle cx="1620" cy="480" r="8" fill="#FFFFFF"/>
    <circle cx="1740" cy="420" r="8" fill="#FFFFFF"/>
  </g>

  <g opacity="0.33" fill="#FFFFFF">
    <rect x="120" y="760" width="120" height="44" rx="6"/>
    <rect x="248" y="760" width="120" height="44" rx="6"/>
    <rect x="376" y="760" width="120" height="44" rx="6"/>
    <rect x="504" y="760" width="120" height="44" rx="6"/>
    <rect x="632" y="760" width="120" height="44" rx="6"/>
    <rect x="760" y="760" width="120" height="44" rx="6"/>
    <rect x="160" y="810" width="120" height="44" rx="6"/>
    <rect x="288" y="810" width="120" height="44" rx="6"/>
    <rect x="416" y="810" width="120" height="44" rx="6"/>
    <rect x="544" y="810" width="120" height="44" rx="6"/>
    <rect x="672" y="810" width="120" height="44" rx="6"/>
  </g>

  <g opacity="0.52" stroke="#FFFFFF" stroke-width="6" stroke-linecap="round">
    <path d="M980 455V862"/>
    <path d="M980 455L915 372"/>
    <path d="M980 455L1063 415"/>
    <path d="M980 455L980 352"/>

    <path d="M1180 390V846"/>
    <path d="M1180 390L1116 330"/>
    <path d="M1180 390L1258 345"/>
    <path d="M1180 390L1180 300"/>

    <path d="M840 490V872"/>
    <path d="M840 490L770 425"/>
    <path d="M840 490L930 462"/>
    <path d="M840 490L840 395"/>
  </g>

  <circle cx="1520" cy="240" r="120" fill="#FFFFFF" fill-opacity="0.14"/>
  <circle cx="1650" cy="300" r="60" fill="#FFFFFF" fill-opacity="0.2"/>

  <path d="M0 640C250 560 370 595 580 680C760 750 930 738 1110 660C1320 570 1500 585 1750 675C1830 705 1890 730 1920 745V0H0V640Z" fill="url(#fadeTop)"/>

  <defs>
    <linearGradient id="fadeTop" x1="960" y1="0" x2="960" y2="745" gradientUnits="userSpaceOnUse">
      <stop stop-color="#FFFFFF" stop-opacity="0.12"/>
      <stop offset="1" stop-color="#FFFFFF" stop-opacity="0"/>
    </linearGradient>
  </defs>
</svg>
