<?xml version="1.0" encoding="utf-8"?>
<!-- Generator: Adobe Illustrator 19.0.0, SVG Export Plug-In . SVG Version: 6.00 Build 0)  -->
<svg version="1.1" id="Layer_1" xmlns="http://www.w3.org/2000/svg" xmlns:xlink="http://www.w3.org/1999/xlink" x="0px" y="0px"
	 viewBox="0 0 160.5 79.4" enable-background="new 0 0 160.5 79.4" xml:space="preserve">
<g id="XMLID_40_">
	<g>
		<defs>
			<rect id="XMLID_52_" x="10.3" y="4.5" width="140.1" height="74.9"/>
		</defs>
		<clipPath id="XMLID_51_">
			<use xlink:href="#XMLID_52_"  overflow="visible"/>
		</clipPath>
		<g clip-path="url(#XMLID_51_)">
			<defs>
				<rect id="XMLID_77_" x="10.3" y="10.3" width="140.1" height="63.3"/>
			</defs>
			<clipPath id="XMLID_79_">
				<use xlink:href="#XMLID_77_"  overflow="visible"/>
			</clipPath>
			<path id="XMLID_78_" clip-path="url(#XMLID_79_)" fill="#8DC63F" d="M112,27.6c-1.1-0.2,3.3-1.8,3.3-2.5c0.1-0.7-7.3,3.3-7.3,3.3
				c-2.5-0.7-6.5-1-6.5-1c0.1-1.1,0.1-2.2-0.1-2.9c0.5,0.1,1,0.4,2,0.7c0.7,0.2,7.3,1.6,7.5,1.3c0.2-0.3-2.3-1-2.1-1.4
				c0.2-0.4,3.8-1,3.8-1.4c0-0.4-3.4-0.2-3.2-0.5c0.1-0.3,2.2-1.7,2-2c-0.2-0.3-3.3,1.7-4.6,1.8c-1.3,0.1-4-0.4-4-0.4s0,0,0,0
				c0.3-0.2,0.5-0.3,0.6-0.3c0.4,0.1,6.5-1.7,6.9-3.2c-0.3,0.3-0.4,0.3,0,0c0,0,0,0,0,0c0.3-0.3,1-0.9,1.5-1.8
				c1.1-1.7-4-3.4-4.5-3.8c-0.3-0.2-0.5-0.7-0.6-1.4c-0.2-1.2-1.1-2.2-2.5-1.9c-1.8,0.4-1.3,2-4,1.7c-0.9-0.1-3.9,0.9-6.6,1.2
				c-2.8-0.2-5.7-0.3-7.2-0.3c-3.8,0-8.5,4.9-10,6.4c-0.9,0.3-1.7,0.7-2.1,0.9c0,0-6.9,0.1-13.6,5.9c0,0-5.5,9.2-6.6,10.7
				c0,0-5.3,0-9-1.4c-2.1-0.8-6.7-4.5-7.2-4.5c-0.5-0.1,1.6,1.9,1.1,1.8c-0.6-0.1-3.9-2.5-4.3-2.4c-0.3,0.1,2.2,2.2,1.6,2
				c-2.1-0.6-4.3-2-5.1-1.7c-0.4,0.1,2.5,1.7,1.6,2.1c-1.1,0.5-4.3-0.1-4.6,0.3c-0.5,0.8,24.6,6.8,26.6,6.1
				c2-0.7,9.6-10.9,11.6-11.7c2.7,0.1,5.9-0.1,5.9-0.1l1.4,1.6c0,0-0.1,4.5-0.8,6.3c0,0.1-0.1,0.2-0.1,0.3c-1,0.6-8.1,4.9-11.9,7.6
				c0,0-2.4,6.3-2.6,9.6c-0.1,2,2.1,8.6,3.8,14c0.9,3.2,1.4,6.8,1.8,6.8c0.6,0-0.4-4.8,0.1-5.6c0.3-0.6,2.1,2.7,2.4,2.4
				c0.3-0.3-1.3-3.9-1.6-5.8c-0.3-1.1,1.7,2.3,1.8,1.9c0.1-0.3-1.6-3.9-1.9-5.5c-0.1-0.6,1.4,1.7,1.5,1.3c0.3-1.2-4.8-7.8-4.9-9.8
				c-0.1-2,0.2-6,1.6-7.2c1.4-1.2,7.8-2.7,11.5-5.8c0,0,2.4-1,6.9-10c5.2,1.7,11.8-1.1,16.6-3.6c0.9,1.5,2.3,3,2.9,3.4
				c1.1,0.6,5.3,2.2,6.9,2.3c1.6,0.1,4.3,0.3,4.6-0.1c0.3-0.4-3.7-0.2-1.8-1.7c1.9-1.5,5.2-1.4,5.4-1.7
				C115.6,27.6,113,27.8,112,27.6"/>
		</g>
		<g clip-path="url(#XMLID_51_)">
			<defs>
				<rect id="XMLID_53_" x="10.3" y="4.5" width="140.1" height="74.9"/>
			</defs>
			<clipPath id="XMLID_80_">
				<use xlink:href="#XMLID_53_"  overflow="visible"/>
			</clipPath>
			<path clip-path="url(#XMLID_80_)" d="M12.1,36.3c1-1.1,2.1-1.7,3.5-1.7c2.8,0,4.8,2.2,4.8,5.3c0,3.1-2.1,5.4-4.9,5.4
				c-1.4,0-2.5-0.5-3.5-1.7V45h-1.7V27.3h1.7V36.3z M11.9,40c0,2.2,1.4,3.7,3.4,3.7c1.9,0,3.3-1.6,3.3-3.7c0-2.2-1.4-3.7-3.3-3.7
				C13.3,36.3,11.9,37.8,11.9,40"/>
			<path id="XMLID_74_" clip-path="url(#XMLID_80_)" d="M24.2,40.8c0,0.9,0.1,1.5,0.3,1.9c0.3,0.6,1.1,1,2,1c0.9,0,1.6-0.4,1.9-1
				c0.2-0.4,0.3-0.9,0.3-1.9v-5.9h1.7V41c0,1.5-0.2,2.3-0.9,3c-0.7,0.8-1.8,1.3-3.1,1.3c-1.3,0-2.4-0.4-3.1-1.3
				c-0.7-0.8-0.9-1.6-0.9-3v-6.1h1.7V40.8z"/>
			<rect id="XMLID_73_" x="33.2" y="27.3" clip-path="url(#XMLID_80_)" width="1.7" height="17.7"/>
			<rect id="XMLID_72_" x="38" y="27.3" clip-path="url(#XMLID_80_)" width="1.7" height="17.7"/>
			<path id="XMLID_71_" clip-path="url(#XMLID_80_)" d="M44.7,45H43v-8.5h-0.9v-1.6H43v-4.3c0-1.3,0.2-2.1,0.6-2.6
				c0.5-0.7,1.4-1,2.4-1c0.4,0,0.7,0,1.3,0.2v1.8c-0.5-0.2-0.8-0.2-1.2-0.2c-1.1,0-1.4,0.5-1.4,2.3v3.9h2.6v1.6h-2.6V45z"/>
			<path id="XMLID_70_" clip-path="url(#XMLID_80_)" d="M50.5,34.9V36c0.9-1.1,1.3-1.3,2.3-1.3c0.6,0,0.9,0.1,1.5,0.4l-0.8,1.6
				c-0.4-0.3-0.6-0.3-1-0.3c-0.7,0-1.3,0.4-1.6,0.9c-0.3,0.5-0.4,1.2-0.4,2.5V45h-1.7V34.9H50.5z"/>
			<path clip-path="url(#XMLID_80_)" d="M65.5,40c0,3-2.3,5.3-5.4,5.3c-3,0-5.3-2.4-5.3-5.4c0-2.9,2.4-5.2,5.4-5.2
				C63.2,34.7,65.5,37,65.5,40 M56.6,39.9c0,2.2,1.5,3.8,3.5,3.8c2.1,0,3.6-1.5,3.6-3.7c0-2.2-1.5-3.7-3.6-3.7
				C58.1,36.3,56.6,37.9,56.6,39.9"/>
			<path clip-path="url(#XMLID_80_)" d="M77.6,45.3c0,2-0.2,3-1,4c-0.9,1.2-2.3,1.9-4,1.9c-3.3,0-4.8-2-4.9-4.9h1.7
				c0.1,0.8,0.2,1.5,0.5,2c0.5,0.8,1.6,1.3,2.7,1.3c2.1,0,3.2-1.4,3.2-4v-2c-1,1.1-2.2,1.7-3.6,1.7c-2.7,0-4.8-2.3-4.8-5.3
				c0-3.1,2.1-5.3,4.9-5.3c1.4,0,2.5,0.5,3.5,1.7v-1.4h1.7V45.3z M69.3,40c0,2.2,1.4,3.7,3.3,3.7c2,0,3.4-1.5,3.4-3.7
				c0-2.2-1.4-3.7-3.4-3.7C70.7,36.2,69.3,37.8,69.3,40"/>
			<path clip-path="url(#XMLID_80_)" d="M80.7,51.2V34.7h2.9V36c0.9-1.2,2-1.7,3.4-1.7c2.9,0,5.1,2.4,5.1,5.5c0,3.1-2.2,5.5-5,5.5
				c-1.4,0-2.4-0.5-3.4-1.7v7.5H80.7z M83.2,39.8c0,1.6,1.3,2.9,2.9,2.9c1.6,0,2.9-1.3,2.9-2.9c0-1.6-1.3-2.9-2.9-2.9
				C84.5,36.9,83.2,38.2,83.2,39.8"/>
			<path clip-path="url(#XMLID_80_)" d="M105.5,39.8c0,3.3-2.4,5.5-6,5.5c-3.5,0-5.8-2.3-5.8-5.6c0-3.2,2.5-5.4,5.9-5.4
				C103.1,34.3,105.5,36.6,105.5,39.8 M96.7,39.8c0,1.6,1.3,2.9,2.9,2.9c1.6,0,2.9-1.3,2.9-2.9c0-1.6-1.3-2.9-2.9-2.9
				C98,36.9,96.7,38.2,96.7,39.8"/>
			<polygon id="XMLID_61_" clip-path="url(#XMLID_80_)" points="111.8,39.4 115.3,34.4 118.7,39.4 121.5,34.7 124.7,34.7 
				118.7,45.2 115.3,39.2 111.8,45.2 105.9,34.7 109.1,34.7 			"/>
			<path clip-path="url(#XMLID_80_)" d="M128.1,40.3c0.1,1.8,1,2.8,2.5,2.8c1.1,0,1.8-0.4,2.5-1.4l2.7,0.4c-0.9,2.1-2.6,3.2-5.1,3.2
				c-3.4,0-5.6-2.2-5.6-5.5c0-3.3,2.1-5.5,5.4-5.5c3.3,0,5.3,2.1,5.3,5.6v0.4H128.1z M133.1,38.5c-0.3-1.3-1.2-2.1-2.5-2.1
				s-2.2,0.8-2.4,2.1H133.1z"/>
			<path id="XMLID_58_" clip-path="url(#XMLID_80_)" d="M141,34.7v1.6c0.7-1.3,1.7-1.9,3-1.9c0.5,0,0.7,0,1.3,0.3l-0.4,2.7
				c-0.5-0.3-0.8-0.4-1.4-0.4c-1.7,0-2.5,1-2.5,3.1v5h-2.9V34.7H141z"/>
			<path clip-path="url(#XMLID_80_)" d="M148.9,33.6c0.9,0,1.6,0.7,1.6,1.6c0,0.9-0.7,1.6-1.6,1.6c-0.9,0-1.6-0.7-1.6-1.6
				C147.3,34.3,148,33.6,148.9,33.6L148.9,33.6z M148.9,33.9c-0.7,0-1.3,0.6-1.3,1.4c0,0.8,0.6,1.4,1.3,1.4c0.7,0,1.3-0.6,1.3-1.4
				C150.2,34.5,149.6,33.9,148.9,33.9L148.9,33.9z M148.6,36.2h-0.3v-1.8c0.2,0,0.3,0,0.5,0c0.3,0,0.4,0.1,0.6,0.1
				c0.1,0.1,0.2,0.2,0.2,0.4c0,0.2-0.2,0.4-0.3,0.4v0c0.2,0,0.3,0.2,0.3,0.4c0,0.3,0.1,0.4,0.1,0.4h-0.3c0-0.1-0.1-0.2-0.1-0.5
				c0-0.2-0.2-0.3-0.4-0.3h-0.2V36.2z M148.6,35.2h0.2c0.2,0,0.4-0.1,0.4-0.3c0-0.2-0.1-0.3-0.4-0.3c-0.1,0-0.2,0-0.2,0V35.2z"/>
		</g>
	</g>
</g>
<g id="XMLID_41_">
</g>
<g id="XMLID_42_">
</g>
<g id="XMLID_45_">
</g>
<g id="XMLID_46_">
</g>
<g id="XMLID_47_">
</g>
<g id="XMLID_48_">
</g>
</svg>
