<svg width="255" height="90" viewBox="0 0 255 90" fill="none" xmlns="http://www.w3.org/2000/svg">
<g clip-path="url(#clip0_823_28893)">
<path fill-rule="evenodd" clip-rule="evenodd" d="M53.2277 38.9559C53.2277 38.9559 46.4054 42.2197 45.3181 40.8685C45.0024 30.6384 40.8109 25.9883 40.8109 25.9883C41.8456 42.4127 10.8913 50.9934 24.6761 85.8778C26.9911 86.7026 29.4288 87.4045 31.9543 88.0011C21.2211 55.4856 52.5261 47.5717 53.2101 38.9734L53.2277 38.9559Z" fill="#D05F27"/>
<path fill-rule="evenodd" clip-rule="evenodd" d="M43.4937 89.7025L41.4418 82.8765L55.7351 72.5937C55.7351 72.5937 52.3854 71.6812 52.2626 69.0491C56.9978 64.1183 57.2609 60.9071 57.2609 60.9071C57.2609 60.9071 49.0532 63.4339 47.5625 61.3984C49.9125 54.239 48.983 52.4316 48.983 52.4316C48.983 52.4316 39.8809 58.4504 36.461 65.5221C31.9713 74.8047 34.4792 85.0875 35.6017 88.7198C37.7588 89.1059 39.9861 89.4042 42.2485 89.5972C42.6694 89.6323 43.0728 89.6674 43.4937 89.6849V89.7025Z" fill="#CF3339"/>
<path d="M25.3247 0C29.5688 9.00186 27.3415 12.8974 25.5 16.9333C15.3106 39.4643 -7.96213 48.8522 2.77102 69.0844C8.50589 79.8937 21.6593 84.6666 21.6593 84.6666C0.824326 41.219 60.7335 40.7803 25.3247 0Z" fill="#54565A"/>
<path d="M79.7797 30.8839C79.3412 31.0944 78.3767 31.3225 77.1315 31.3225C73.3608 31.3225 71.4492 28.7782 71.4492 25.4266C71.4492 21.2678 74.2027 19.1797 77.3945 19.1797C78.6047 19.1797 79.5166 19.4254 79.92 19.6359L79.4289 21.689C78.9729 21.496 78.3591 21.3029 77.5348 21.3029C75.6583 21.3029 74.15 22.5488 74.15 25.2511C74.15 27.7604 75.4478 29.1291 77.5348 29.1291C78.2188 29.1291 78.9729 28.9887 79.4289 28.8133L79.7797 30.8663V30.8839Z" fill="#54565A"/>
<path d="M86.9525 26.3033L86.3211 23.8115C86.1457 23.1096 85.9528 22.127 85.795 21.4075H85.7599C85.6021 22.127 85.4267 23.1272 85.2513 23.8115L84.62 26.3033H86.9525ZM84.2692 28.2335L83.5326 31.1639H80.937L84.2341 19.3369H87.5137L90.7757 31.1639H88.0924L87.3032 28.2335H84.2867H84.2692Z" fill="#54565A"/>
<path d="M92.4418 31.1639V19.3369H95.2479L97.5102 23.7589C98.1065 24.8995 98.773 26.391 99.2465 27.6369H99.2816C99.1413 26.1629 99.0536 24.4432 99.0536 22.5306V19.3369H101.369V31.1639H98.773L96.458 26.6367C95.8442 25.4434 95.1426 23.9344 94.6516 22.6534H94.599C94.6691 24.1098 94.7217 25.8295 94.7217 27.9001V31.1815H92.4067L92.4418 31.1639Z" fill="#54565A"/>
<path d="M108.963 26.3033L108.331 23.8115C108.156 23.1096 107.963 22.127 107.805 21.4075H107.77C107.612 22.127 107.437 23.1272 107.262 23.8115L106.63 26.3033H108.963ZM106.279 28.2335L105.543 31.1639H102.947L106.244 19.3369H109.524L112.786 31.1639H110.103L109.313 28.2335H106.297H106.279Z" fill="#54565A"/>
<path d="M116.995 29.1994C117.188 29.2345 117.504 29.2345 117.767 29.2345C119.801 29.2345 121.187 27.9886 121.187 25.0231C121.187 22.584 119.994 21.2329 117.977 21.2329C117.521 21.2329 117.206 21.268 116.995 21.3206V29.1819V29.1994ZM114.435 19.4957C115.294 19.3377 116.451 19.25 117.662 19.25C119.678 19.25 121.011 19.636 122.028 20.4608C123.186 21.3732 123.887 22.8472 123.887 25.0056C123.887 27.3043 123.133 28.9187 122.028 29.8662C120.924 30.8138 119.24 31.2876 117.135 31.2876C115.943 31.2876 115.031 31.1998 114.435 31.1296V19.5308V19.4957Z" fill="#54565A"/>
<path d="M128.324 19.3369V31.1639H125.764V19.3369H128.324Z" fill="#54565A"/>
<path d="M135.901 26.3033L135.269 23.8115C135.094 23.1096 134.901 22.127 134.743 21.4075H134.708C134.55 22.127 134.375 23.1272 134.2 23.8115L133.568 26.3033H135.901ZM133.217 28.2335L132.481 31.1639H129.885L133.182 19.3369H136.462L139.724 31.1639H137.041L136.251 28.2335H133.235H133.217Z" fill="#54565A"/>
<path d="M141.39 31.1639V19.3369H144.196L146.458 23.7589C147.055 24.8995 147.721 26.391 148.195 27.6369H148.23C148.09 26.1629 148.002 24.4432 148.002 22.5306V19.3369H150.317V31.1639H147.721L145.406 26.6367C144.792 25.4434 144.091 23.9344 143.6 22.6534H143.547C143.617 24.1098 143.67 25.8295 143.67 27.9001V31.1815H141.355L141.39 31.1639Z" fill="#54565A"/>
<path d="M162.645 26.0927H158.805V29.0231H163.119V31.1639H156.244V19.3369H162.873V21.4777H158.805V24.0045H162.645V26.0927Z" fill="#54565A"/>
<path d="M165.049 31.1639V19.3369H167.855L170.117 23.7589C170.713 24.8995 171.38 26.391 171.853 27.6369H171.889C171.748 26.1629 171.661 24.4432 171.661 22.5306V19.3369H173.976V31.1639H171.38L169.065 26.6367C168.451 25.4434 167.75 23.9344 167.259 22.6534H167.206C167.276 24.1098 167.329 25.8295 167.329 27.9001V31.1815H165.014L165.049 31.1639Z" fill="#54565A"/>
<path d="M182.814 26.0927H178.974V29.0231H183.288V31.1639H176.413V19.3369H183.042V21.4777H178.974V24.0045H182.814V26.0927Z" fill="#54565A"/>
<path d="M187.76 24.6196H188.619C189.847 24.6196 190.566 23.9001 190.566 22.8824C190.566 21.8646 189.934 21.2153 188.759 21.1978C188.251 21.1978 187.918 21.2329 187.76 21.2855V24.6196ZM185.217 19.5132C186.024 19.3729 187.199 19.2676 188.461 19.2676C190.057 19.2676 191.267 19.5132 192.092 20.18C192.793 20.7591 193.144 21.5838 193.144 22.6542C193.144 24.0756 192.214 25.146 191.145 25.5671V25.6198C191.951 25.9532 192.407 26.7253 192.688 27.8658C193.004 29.1995 193.354 30.7085 193.582 31.1648H190.952C190.776 30.8314 190.496 29.7961 190.198 28.3923C189.899 26.9183 189.443 26.5147 188.444 26.5147H187.777V31.1823H185.234V19.5308L185.217 19.5132Z" fill="#54565A"/>
<path d="M203.947 30.691C203.211 30.9542 201.808 31.2876 200.457 31.2876C198.546 31.2876 197.143 30.7962 196.143 29.8311C195.073 28.8134 194.495 27.2166 194.512 25.3916C194.53 21.3557 197.283 19.25 200.738 19.25C202.071 19.25 203.106 19.5132 203.614 19.7589L203.106 21.847C202.544 21.6014 201.86 21.4083 200.773 21.4083C198.756 21.4083 197.195 22.6016 197.195 25.339C197.195 27.9009 198.598 29.217 200.457 29.217C200.948 29.217 201.334 29.1643 201.51 29.0766V26.4796H199.914V24.4616H203.947V30.7085V30.691Z" fill="#54565A"/>
<path d="M208.419 31.1639V26.4085L205.035 19.3369H207.911L208.998 22.1796C209.314 23.0043 209.559 23.7062 209.822 24.5134H209.858C210.086 23.7413 210.349 23.0043 210.647 22.1621L211.681 19.3369H214.505L210.98 26.3208V31.1639H208.419Z" fill="#54565A"/>
<path d="M78.4291 45.3954H74.5884V48.3259H78.9027V50.4667H72.0278V38.6396H78.6571V40.7804H74.5884V43.3073H78.4291V45.3954Z" fill="#54565A"/>
<path d="M86.3212 50.4666L85.3566 48.3083C84.9883 47.5186 84.7252 46.8869 84.4271 46.185H84.392C84.164 46.8869 83.901 47.5362 83.5853 48.3083L82.7084 50.4491H79.9023L82.9539 44.4478L80.0076 38.6221H82.8838L83.8133 40.7804C84.1114 41.4648 84.3394 42.0614 84.5849 42.7282H84.62C84.8831 41.9912 85.076 41.4472 85.3391 40.7804L86.216 38.6221H89.0395L86.0406 44.4127L89.1974 50.4315H86.3212V50.4666Z" fill="#54565A"/>
<path d="M97.0717 45.3954H93.2309V48.3259H97.5452V50.4667H90.6704V38.6396H97.2997V40.7804H93.2309V43.3073H97.0717V45.3954Z" fill="#54565A"/>
<path d="M107.226 50.1856C106.788 50.3962 105.823 50.6243 104.578 50.6243C100.808 50.6243 98.896 48.0799 98.896 44.7283C98.896 40.5696 101.649 38.4814 104.841 38.4814C106.051 38.4814 106.963 38.7271 107.367 38.9377L106.876 40.9907C106.42 40.7977 105.806 40.6047 104.982 40.6047C103.105 40.6047 101.597 41.8506 101.597 44.5529C101.597 47.0622 102.895 48.4309 104.982 48.4309C105.666 48.4309 106.42 48.2905 106.876 48.115L107.226 50.1681V50.1856Z" fill="#54565A"/>
<path d="M111.558 38.6396V45.7113C111.558 47.6591 112.26 48.554 113.4 48.554C114.54 48.554 115.259 47.7117 115.259 45.7113V38.6396H117.819V45.4656C117.819 48.94 116.188 50.6421 113.329 50.6421C110.471 50.6421 108.998 48.9751 108.998 45.4481V38.6396H111.558Z" fill="#54565A"/>
<path d="M122.168 40.8506H119.327V38.6396H127.623V40.8506H124.729V50.4667H122.168V40.8506Z" fill="#54565A"/>
<path d="M131.727 38.6396V50.4667H129.166V38.6396H131.727Z" fill="#54565A"/>
<path d="M136.584 50.4667L133.147 38.6396H135.953L137.198 43.6758C137.549 45.0445 137.865 46.4132 138.128 47.8521H138.163C138.426 46.4307 138.742 45.0269 139.092 43.6933L140.39 38.6396H143.144L139.548 50.4667H136.584Z" fill="#54565A"/>
<path d="M150.913 45.3954H147.072V48.3259H151.387V50.4667H144.512V38.6396H151.141V40.7804H147.072V43.3073H150.913V45.3954Z" fill="#54565A"/>
<path d="M161.962 45.606L161.33 43.1143C161.155 42.4124 160.962 41.4297 160.804 40.7103H160.769C160.611 41.4297 160.436 42.4299 160.261 43.1143L159.629 45.606H161.962ZM159.278 47.5362L158.542 50.4667H155.946L159.243 38.6396H162.523L165.785 50.4667H163.102L162.313 47.5362H159.296H159.278Z" fill="#54565A"/>
<path d="M167.433 47.8343C168.065 48.1852 169.1 48.5011 170.082 48.5011C171.257 48.5011 171.888 47.9747 171.888 47.2026C171.888 46.4305 171.327 46.0093 170.047 45.4654C168.188 44.6757 167.1 43.5527 167.1 42.0261C167.1 40.0432 168.661 38.499 171.344 38.499C172.519 38.499 173.431 38.7447 174.01 39.043L173.484 41.1311C173.063 40.9206 172.309 40.6223 171.309 40.6223C170.204 40.6223 169.678 41.1838 169.678 41.7979C169.678 42.5349 170.24 42.8859 171.695 43.5176C173.624 44.3423 174.484 45.4654 174.484 47.0096C174.484 49.0451 172.94 50.6594 169.976 50.6594C168.749 50.6594 167.539 50.326 166.96 49.9926L167.433 47.8518V47.8343Z" fill="#54565A"/>
<path d="M176.308 47.8343C176.939 48.1852 177.974 48.5011 178.956 48.5011C180.149 48.5011 180.763 47.9747 180.763 47.2026C180.763 46.4305 180.201 46.0093 178.921 45.4654C177.062 44.6757 175.975 43.5527 175.975 42.0261C175.975 40.0432 177.536 38.499 180.219 38.499C181.394 38.499 182.288 38.7447 182.885 39.043L182.359 41.1311C181.938 40.9206 181.184 40.6223 180.184 40.6223C179.079 40.6223 178.553 41.1838 178.553 41.7979C178.553 42.5349 179.114 42.8859 180.57 43.5176C182.499 44.3423 183.358 45.4654 183.358 47.0096C183.358 49.0451 181.815 50.6594 178.851 50.6594C177.623 50.6594 176.413 50.326 175.834 49.9926L176.308 47.8518V47.8343Z" fill="#54565A"/>
<path d="M187.321 44.5704C187.321 46.9919 188.233 48.5537 189.759 48.5537C191.285 48.5537 192.144 46.834 192.144 44.5002C192.144 42.377 191.338 40.552 189.742 40.552C188.146 40.552 187.304 42.2015 187.304 44.5704H187.321ZM194.845 44.4125C194.845 48.4659 192.741 50.6418 189.636 50.6418C186.374 50.6418 184.621 47.9395 184.621 44.6055C184.621 41.2715 186.602 38.4639 189.812 38.4639C193.197 38.4639 194.828 41.3066 194.828 44.4125H194.845Z" fill="#54565A"/>
<path d="M204.456 50.1856C204.018 50.3962 203.053 50.6243 201.808 50.6243C198.037 50.6243 196.125 48.0799 196.125 44.7283C196.125 40.5696 198.879 38.4814 202.071 38.4814C203.281 38.4814 204.193 38.7271 204.579 38.9377L204.088 40.9907C203.632 40.7977 203.018 40.6047 202.194 40.6047C200.317 40.6047 198.826 41.8506 198.826 44.5529C198.826 47.0622 200.124 48.4309 202.211 48.4309C202.895 48.4309 203.649 48.2905 204.105 48.115L204.456 50.1681V50.1856Z" fill="#54565A"/>
<path d="M208.823 38.6396V50.4667H206.262V38.6396H208.823Z" fill="#54565A"/>
<path d="M216.399 45.606L215.768 43.1143C215.593 42.4124 215.4 41.4297 215.242 40.7103H215.207C215.049 41.4297 214.873 42.4299 214.698 43.1143L214.067 45.606H216.399ZM213.716 47.5362L212.979 50.4667H210.384L213.681 38.6396H216.96L220.223 50.4667H217.539L216.75 47.5362H213.734H213.716Z" fill="#54565A"/>
<path d="M222.573 40.8506H219.731V38.6396H228.027V40.8506H225.133V50.4667H222.573V40.8506Z" fill="#54565A"/>
<path d="M232.131 38.6396V50.4667H229.57V38.6396H232.131Z" fill="#54565A"/>
<path d="M236.673 44.5704C236.673 46.9919 237.585 48.5537 239.111 48.5537C240.637 48.5537 241.496 46.834 241.496 44.5002C241.496 42.377 240.689 40.552 239.093 40.552C237.497 40.552 236.655 42.2015 236.655 44.5704H236.673ZM244.197 44.4125C244.197 48.4659 242.075 50.6418 238.988 50.6418C235.743 50.6418 233.972 47.9395 233.972 44.6055C233.972 41.2715 235.954 38.4639 239.163 38.4639C242.548 38.4639 244.179 41.3066 244.179 44.4125H244.197Z" fill="#54565A"/>
<path d="M246.056 50.4667V38.6396H248.862L251.124 43.0616C251.72 44.2022 252.387 45.6937 252.86 46.9396H252.895C252.755 45.4656 252.667 43.746 252.667 41.8333V38.6396H254.982V50.4667H252.387L250.072 45.9394C249.458 44.7462 248.756 43.2371 248.265 41.9561H248.213C248.283 43.4126 248.336 45.1322 248.336 47.2028V50.4842H246.021L246.056 50.4667Z" fill="#54565A"/>
<path d="M72.0806 64.9609H73.2381V72.9099H77.0613V73.8926H72.0806V64.9609Z" fill="#54565A"/>
<path d="M83.6027 69.6988H80.1477V72.9275H84.0236V73.8926H78.9902V64.9609H83.8131V65.9085H80.1477V68.7512H83.6027V69.6988Z" fill="#54565A"/>
<path d="M90.548 70.1725L89.6711 67.6106C89.4782 67.0315 89.3379 66.4875 89.2151 65.9787H89.18C89.0572 66.5051 88.9169 67.0491 88.7416 67.593L87.8647 70.1725H90.5655H90.548ZM87.6191 71.0674L86.6896 73.875H85.4971L88.5311 64.9434H89.9166L92.9682 73.875H91.7405L90.7935 71.0674H87.6367H87.6191Z" fill="#54565A"/>
<path d="M96.0896 72.98C96.3878 73.0327 96.8087 73.0327 97.2471 73.0327C99.72 73.0327 101.053 71.664 101.053 69.2424C101.053 67.1367 99.8778 65.8031 97.44 65.8031C96.8438 65.8031 96.4053 65.8557 96.0896 65.9259V72.98ZM94.9321 65.0836C95.6336 64.9608 96.4755 64.8906 97.3874 64.8906C99.036 64.8906 100.229 65.2767 101 66.0137C101.789 66.7331 102.263 67.7684 102.263 69.2073C102.263 70.6462 101.807 71.857 100.983 72.6817C100.141 73.5064 98.7554 73.9627 97.0367 73.9627C96.2124 73.9627 95.5284 73.9276 94.9321 73.8574V65.0661V65.0836Z" fill="#54565A"/>
<path d="M105.56 64.9609V73.8926H104.403V64.9609H105.56Z" fill="#54565A"/>
<path d="M108.226 73.8926V64.9609H109.489L112.347 69.4706C112.996 70.5235 113.523 71.4535 113.943 72.3835H113.978C113.873 71.1727 113.856 70.0848 113.856 68.6986V64.9609H114.943V73.8926H113.768L110.927 69.3654C110.313 68.3651 109.717 67.3474 109.261 66.3823H109.226C109.296 67.5229 109.313 68.6108 109.313 70.0848V73.9102H108.226V73.8926Z" fill="#54565A"/>
<path d="M124.396 73.4889C123.887 73.6819 122.852 73.9802 121.66 73.9802C120.309 73.9802 119.187 73.6468 118.328 72.8045C117.556 72.0675 117.083 70.8743 117.083 69.488C117.083 66.8208 118.924 64.873 121.905 64.873C122.94 64.873 123.747 65.1012 124.133 65.2766L123.852 66.2242C123.379 66.0136 122.782 65.8382 121.888 65.8382C119.731 65.8382 118.31 67.1893 118.31 69.4178C118.31 71.6464 119.661 73.0151 121.748 73.0151C122.502 73.0151 123.01 72.9098 123.273 72.7694V70.1022H121.467V69.1722H124.413V73.4538L124.396 73.4889Z" fill="#54565A"/>
<path d="M130.271 64.9609H135.076V65.9085H131.428V68.8916H134.796V69.8391H131.428V73.8926H130.271V64.9609Z" fill="#54565A"/>
<path d="M138.532 69.1371H139.707C140.934 69.1371 141.723 68.4703 141.723 67.435C141.723 66.2768 140.882 65.768 139.671 65.768C139.11 65.768 138.724 65.8206 138.532 65.8733V69.1371ZM137.374 65.0661C137.953 64.9432 138.795 64.873 139.584 64.873C140.811 64.873 141.618 65.1012 142.162 65.61C142.6 65.9961 142.863 66.6102 142.863 67.3121C142.863 68.4878 142.109 69.2599 141.18 69.5933V69.6284C141.864 69.8741 142.267 70.5058 142.495 71.4358C142.793 72.6817 143.004 73.5415 143.179 73.8925H141.986C141.846 73.6292 141.636 72.8747 141.408 71.7517C141.145 70.5233 140.654 70.0496 139.619 70.0145H138.532V73.8925H137.374V65.0836V65.0661Z" fill="#54565A"/>
<path d="M145.897 69.4704C145.897 71.3831 146.932 73.0852 148.756 73.0852C150.58 73.0852 151.614 71.4006 151.614 69.3827C151.614 67.6104 150.685 65.7503 148.773 65.7503C146.862 65.7503 145.897 67.5226 145.897 69.4704ZM152.825 69.33C152.825 72.4008 150.966 74.0327 148.686 74.0327C146.406 74.0327 144.669 72.1903 144.669 69.5055C144.669 66.6803 146.423 64.8203 148.808 64.8203C151.194 64.8203 152.825 66.6803 152.825 69.3476V69.33Z" fill="#54565A"/>
<path d="M162.506 69.962C162.435 68.7161 162.365 67.207 162.365 66.1191H162.33C162.015 67.1544 161.646 68.2774 161.208 69.5057L159.629 73.84H158.752L157.297 69.5935C156.876 68.3301 156.525 67.1895 156.28 66.1366H156.245C156.209 67.2421 156.157 68.7336 156.069 70.0673L155.841 73.8926H154.736L155.35 64.9609H156.823L158.349 69.2776C158.717 70.3656 159.016 71.3482 159.244 72.2782H159.279C159.507 71.3833 159.822 70.3831 160.226 69.2776L161.822 64.9609H163.295L163.856 73.8926H162.716L162.506 69.9795V69.962Z" fill="#54565A"/>
<path d="M170.906 65.926H168.188V64.9609H174.8V65.926H172.064V73.8926H170.906V65.926Z" fill="#54565A"/>
<path d="M177.588 64.9609V68.6986H181.902V64.9609H183.078V73.8926H181.902V69.6988H177.588V73.8926H176.431V64.9609H177.588Z" fill="#54565A"/>
<path d="M190.356 69.6988H186.883V72.9275H190.759V73.8926H185.726V64.9609H190.548V65.9085H186.883V68.7512H190.356V69.6988Z" fill="#54565A"/>
<path d="M196.371 64.9609H201.176V65.9085H197.529V68.8916H200.896V69.8391H197.529V73.8926H196.371V64.9609Z" fill="#54565A"/>
<path d="M204.631 69.1371H205.806C207.034 69.1371 207.823 68.4703 207.823 67.435C207.823 66.2768 206.981 65.768 205.771 65.768C205.21 65.768 204.824 65.8206 204.631 65.8733V69.1371ZM203.474 65.0661C204.052 64.9432 204.894 64.873 205.683 64.873C206.911 64.873 207.718 65.1012 208.261 65.61C208.7 65.9961 208.963 66.6102 208.963 67.3121C208.963 68.4878 208.209 69.2599 207.279 69.5933V69.6284C207.963 69.8741 208.367 70.5058 208.595 71.4358C208.893 72.6817 209.103 73.5415 209.279 73.8925H208.086C207.946 73.6292 207.753 72.8747 207.507 71.7517C207.244 70.5233 206.753 70.0496 205.718 70.0145H204.631V73.8925H203.474V65.0836V65.0661Z" fill="#54565A"/>
<path d="M211.997 69.4704C211.997 71.3831 213.032 73.0852 214.856 73.0852C216.68 73.0852 217.715 71.4006 217.715 69.3827C217.715 67.6104 216.785 65.7503 214.873 65.7503C212.962 65.7503 212.015 67.5226 212.015 69.4704H211.997ZM218.925 69.33C218.925 72.4008 217.066 74.0327 214.786 74.0327C212.506 74.0327 210.77 72.1903 210.77 69.5055C210.77 66.6803 212.523 64.8203 214.908 64.8203C217.294 64.8203 218.925 66.6803 218.925 69.3476V69.33Z" fill="#54565A"/>
<path d="M221.064 73.8926V64.9609H222.327L225.186 69.4706C225.835 70.5235 226.361 71.4535 226.782 72.3835H226.817C226.712 71.1727 226.694 70.0848 226.694 68.6986V64.9609H227.781V73.8926H226.606L223.765 69.3654C223.151 68.3651 222.555 67.3474 222.099 66.3823H222.064C222.134 67.5229 222.152 68.6108 222.152 70.0848V73.9102H221.064V73.8926Z" fill="#54565A"/>
<path d="M232.148 65.926H229.43V64.9609H236.024V65.926H233.306V73.8926H232.148V65.926Z" fill="#54565A"/>
<path d="M71.4668 57.8193H236.673" stroke="#54565A" stroke-width="0.24" stroke-miterlimit="10"/>
</g>
<defs>
<clipPath id="clip0_823_28893">
<rect width="255" height="89.7027" fill="white"/>
</clipPath>
</defs>
</svg>
